
<svg xmlns="http://www.w3.org/2000/svg" version="1.1" xmlns:xlink="http://www.w3.org/1999/xlink" preserveAspectRatio="none" x="0px" y="0px" width="375px" height="375px" viewBox="0 0 375 375">
<defs>
<linearGradient id="Gradient_1" gradientUnits="userSpaceOnUse" x1="73.75" y1="272.16249999999997" x2="37.05" y2="256.7375" spreadMethod="pad">
<stop  offset="0%" stop-color="#CB1F57"/>

<stop  offset="100%" stop-color="#C42259"/>
</linearGradient>

<linearGradient id="Gradient_2" gradientUnits="userSpaceOnUse" x1="42.425" y1="258.4125" x2="-2.8249999999999993" y2="239.38750000000002" spreadMethod="pad">
<stop  offset="0%" stop-color="#CA2158"/>

<stop  offset="100%" stop-color="#C2235B"/>
</linearGradient>

<linearGradient id="Gradient_3" gradientUnits="userSpaceOnUse" x1="125.5125" y1="275.41249999999997" x2="48.3875" y2="242.98749999999998" spreadMethod="pad">
<stop  offset="0%" stop-color="#D52150"/>

<stop  offset="100%" stop-color="#D3234F"/>
</linearGradient>

<linearGradient id="Gradient_4" gradientUnits="userSpaceOnUse" x1="239.3625" y1="277.275" x2="-151.46250000000003" y2="112.92499999999998" spreadMethod="pad">
<stop  offset="0%" stop-color="#C82158"/>

<stop  offset="100%" stop-color="#CC214F"/>
</linearGradient>

<linearGradient id="Gradient_5" gradientUnits="userSpaceOnUse" x1="182.525" y1="235.2125" x2="10.275000000000006" y2="162.7875" spreadMethod="pad">
<stop  offset="0%" stop-color="#D7214D"/>

<stop  offset="100%" stop-color="#D51F4A"/>
</linearGradient>

<linearGradient id="Gradient_6" gradientUnits="userSpaceOnUse" x1="67.66250000000001" y1="191.88750000000002" x2="-74.2625" y2="132.2125" spreadMethod="pad">
<stop  offset="0%" stop-color="#CD2042"/>

<stop  offset="100%" stop-color="#D91E38"/>
</linearGradient>

<linearGradient id="Gradient_7" gradientUnits="userSpaceOnUse" x1="79.30000000000001" y1="240.2875" x2="-118.30000000000001" y2="157.2125" spreadMethod="pad">
<stop  offset="0%" stop-color="#C72253"/>

<stop  offset="100%" stop-color="#D11F43"/>
</linearGradient>

<linearGradient id="Gradient_8" gradientUnits="userSpaceOnUse" x1="13.100000000000001" y1="139.2125" x2="2.8" y2="134.88750000000002" spreadMethod="pad">
<stop  offset="0%" stop-color="#E01E38"/>

<stop  offset="100%" stop-color="#DD1E37"/>
</linearGradient>

<linearGradient id="Gradient_9" gradientUnits="userSpaceOnUse" x1="74.17500000000001" y1="145.375" x2="-32.975" y2="100.32499999999999" spreadMethod="pad">
<stop  offset="0%" stop-color="#E42133"/>

<stop  offset="100%" stop-color="#E82A2B"/>
</linearGradient>

<linearGradient id="Gradient_10" gradientUnits="userSpaceOnUse" x1="157.275" y1="156.375" x2="59.625" y2="115.32499999999999" spreadMethod="pad">
<stop  offset="0%" stop-color="#E32D37"/>

<stop  offset="100%" stop-color="#E52C31"/>
</linearGradient>

<linearGradient id="Gradient_11" gradientUnits="userSpaceOnUse" x1="58.575" y1="129.92499999999998" x2="-21.475000000000005" y2="96.27499999999999" spreadMethod="pad">
<stop  offset="0%" stop-color="#DF1D37"/>

<stop  offset="100%" stop-color="#DF1F32"/>
</linearGradient>

<linearGradient id="Gradient_12" gradientUnits="userSpaceOnUse" x1="352.9875" y1="239.11249999999998" x2="300.6125" y2="217.0875" spreadMethod="pad">
<stop  offset="0%" stop-color="#EC492D"/>

<stop  offset="100%" stop-color="#ED4A2B"/>
</linearGradient>

<linearGradient id="Gradient_13" gradientUnits="userSpaceOnUse" x1="377.525" y1="219.2625" x2="298.975" y2="186.2375" spreadMethod="pad">
<stop  offset="0%" stop-color="#EC512D"/>

<stop  offset="100%" stop-color="#EF5928"/>
</linearGradient>

<linearGradient id="Gradient_14" gradientUnits="userSpaceOnUse" x1="397.775" y1="203.52499999999998" x2="283.225" y2="155.375" spreadMethod="pad">
<stop  offset="0%" stop-color="#F26525"/>

<stop  offset="100%" stop-color="#F05A27"/>
</linearGradient>

<linearGradient id="Gradient_15" gradientUnits="userSpaceOnUse" x1="391.88750000000005" y1="184.2375" x2="208.8125" y2="107.26249999999999" spreadMethod="pad">
<stop  offset="0%" stop-color="#F05927"/>

<stop  offset="100%" stop-color="#F16327"/>
</linearGradient>

<linearGradient id="Gradient_16" gradientUnits="userSpaceOnUse" x1="387.075" y1="245.0625" x2="170.825" y2="154.1375" spreadMethod="pad">
<stop  offset="0%" stop-color="#EF5029"/>

<stop  offset="100%" stop-color="#F05927"/>
</linearGradient>

<linearGradient id="Gradient_17" gradientUnits="userSpaceOnUse" x1="465.0625" y1="221.28750000000002" x2="135.73749999999995" y2="82.81250000000001" spreadMethod="pad">
<stop  offset="0%" stop-color="#F05C26"/>

<stop  offset="100%" stop-color="#F06225"/>
</linearGradient>

<linearGradient id="Gradient_18" gradientUnits="userSpaceOnUse" x1="501.025" y1="221.3375" x2="161.27499999999998" y2="78.4625" spreadMethod="pad">
<stop  offset="0%" stop-color="#F16526"/>

<stop  offset="100%" stop-color="#F26B26"/>
</linearGradient>

<linearGradient id="Gradient_19" gradientUnits="userSpaceOnUse" x1="344.77500000000003" y1="141.1" x2="304.325" y2="124.1" spreadMethod="pad">
<stop  offset="0%" stop-color="#F26B28"/>

<stop  offset="100%" stop-color="#F26F28"/>
</linearGradient>

<linearGradient id="Gradient_20" gradientUnits="userSpaceOnUse" x1="384.8625" y1="291.5875" x2="247.2375" y2="233.71249999999998" spreadMethod="pad">
<stop  offset="0%" stop-color="#E3373B"/>

<stop  offset="100%" stop-color="#EA472F"/>
</linearGradient>

<linearGradient id="Gradient_21" gradientUnits="userSpaceOnUse" x1="385.3625" y1="155.1" x2="309.2375" y2="123.1" spreadMethod="pad">
<stop  offset="0%" stop-color="#F26525"/>

<stop  offset="100%" stop-color="#F16925"/>
</linearGradient>

<linearGradient id="Gradient_22" gradientUnits="userSpaceOnUse" x1="360.95" y1="165.1625" x2="283.55" y2="132.63750000000002" spreadMethod="pad">
<stop  offset="0%" stop-color="#F27128"/>

<stop  offset="100%" stop-color="#F16827"/>
</linearGradient>

<linearGradient id="Gradient_23" gradientUnits="userSpaceOnUse" x1="392.5375" y1="238.9875" x2="149.0625" y2="136.6125" spreadMethod="pad">
<stop  offset="0%" stop-color="#E43A37"/>

<stop  offset="100%" stop-color="#E9442F"/>
</linearGradient>

<linearGradient id="Gradient_24" gradientUnits="userSpaceOnUse" x1="392.925" y1="335.925" x2="129.075" y2="224.975" spreadMethod="pad">
<stop  offset="0%" stop-color="#DF3040"/>

<stop  offset="100%" stop-color="#E43938"/>
</linearGradient>

<linearGradient id="Gradient_25" gradientUnits="userSpaceOnUse" x1="549.1375" y1="401.1625" x2="-17.4375" y2="162.9375" spreadMethod="pad">
<stop  offset="0%" stop-color="#DF303F"/>

<stop  offset="100%" stop-color="#E74032"/>
</linearGradient>

<linearGradient id="Gradient_26" gradientUnits="userSpaceOnUse" x1="427.23749999999995" y1="262.0125" x2="154.1625" y2="147.1875" spreadMethod="pad">
<stop  offset="0%" stop-color="#EA472E"/>

<stop  offset="100%" stop-color="#EE4B2B"/>
</linearGradient>

<linearGradient id="Gradient_27" gradientUnits="userSpaceOnUse" x1="308.6125" y1="228.3125" x2="214.3875" y2="188.6875" spreadMethod="pad">
<stop  offset="0%" stop-color="#EA472E"/>

<stop  offset="100%" stop-color="#ED4B2B"/>
</linearGradient>

<linearGradient id="Gradient_28" gradientUnits="userSpaceOnUse" x1="287.625" y1="192.02499999999998" x2="255.17499999999998" y2="178.375" spreadMethod="pad">
<stop  offset="0%" stop-color="#ED4B2B"/>

<stop  offset="100%" stop-color="#EE4E2A"/>
</linearGradient>

<linearGradient id="Gradient_29" gradientUnits="userSpaceOnUse" x1="248.42499999999998" y1="171.175" x2="229.275" y2="163.125" spreadMethod="pad">
<stop  offset="0%" stop-color="#EE5029"/>

<stop  offset="100%" stop-color="#EE5028"/>
</linearGradient>

<linearGradient id="Gradient_30" gradientUnits="userSpaceOnUse" x1="295.6" y1="170.825" x2="210.79999999999998" y2="135.175" spreadMethod="pad">
<stop  offset="0%" stop-color="#F05627"/>

<stop  offset="100%" stop-color="#EF5728"/>
</linearGradient>

<linearGradient id="Gradient_31" gradientUnits="userSpaceOnUse" x1="480.32500000000005" y1="167.75" x2="78.67499999999998" y2="-1.1500000000000057" spreadMethod="pad">
<stop  offset="0%" stop-color="#F16128"/>

<stop  offset="100%" stop-color="#F05C2A"/>
</linearGradient>

<linearGradient id="Gradient_32" gradientUnits="userSpaceOnUse" x1="332.57500000000005" y1="152.925" x2="199.025" y2="96.77499999999999" spreadMethod="pad">
<stop  offset="0%" stop-color="#F16128"/>

<stop  offset="100%" stop-color="#EF5728"/>
</linearGradient>

<linearGradient id="Gradient_33" gradientUnits="userSpaceOnUse" x1="346.05" y1="123.425" x2="301.45" y2="104.675" spreadMethod="pad">
<stop  offset="0%" stop-color="#F26D28"/>

<stop  offset="100%" stop-color="#F47528"/>
</linearGradient>

<linearGradient id="Gradient_34" gradientUnits="userSpaceOnUse" x1="402.9125" y1="162.275" x2="370.6875" y2="148.725" spreadMethod="pad">
<stop  offset="0%" stop-color="#F47124"/>

<stop  offset="100%" stop-color="#F57A24"/>
</linearGradient>

<linearGradient id="Gradient_35" gradientUnits="userSpaceOnUse" x1="378.1" y1="126.3" x2="282" y2="85.89999999999999" spreadMethod="pad">
<stop  offset="0%" stop-color="#F57C27"/>

<stop  offset="100%" stop-color="#F6822A"/>
</linearGradient>

<linearGradient id="Gradient_36" gradientUnits="userSpaceOnUse" x1="474.9125" y1="167.55" x2="317.6875" y2="101.44999999999999" spreadMethod="pad">
<stop  offset="0%" stop-color="#F47C27"/>

<stop  offset="100%" stop-color="#F68326"/>
</linearGradient>

<linearGradient id="Gradient_37" gradientUnits="userSpaceOnUse" x1="307.625" y1="262.1625" x2="24.57499999999999" y2="143.1375" spreadMethod="pad">
<stop  offset="0%" stop-color="#DC2946"/>

<stop  offset="100%" stop-color="#DD2943"/>
</linearGradient>

<linearGradient id="Gradient_38" gradientUnits="userSpaceOnUse" x1="243.075" y1="247.7" x2="150.325" y2="208.7" spreadMethod="pad">
<stop  offset="0%" stop-color="#E0333D"/>

<stop  offset="100%" stop-color="#DD2A42"/>
</linearGradient>

<linearGradient id="Gradient_39" gradientUnits="userSpaceOnUse" x1="157.425" y1="237.03750000000002" x2="25.974999999999994" y2="181.7625" spreadMethod="pad">
<stop  offset="0%" stop-color="#DB2747"/>

<stop  offset="100%" stop-color="#DE253D"/>
</linearGradient>

<linearGradient id="Gradient_40" gradientUnits="userSpaceOnUse" x1="111.2625" y1="173.41250000000002" x2="88.1375" y2="163.6875" spreadMethod="pad">
<stop  offset="0%" stop-color="#DF283D"/>

<stop  offset="100%" stop-color="#DF2139"/>
</linearGradient>

<linearGradient id="Gradient_41" gradientUnits="userSpaceOnUse" x1="250.9625" y1="210.9375" x2="172.73749999999998" y2="178.0625" spreadMethod="pad">
<stop  offset="0%" stop-color="#E43938"/>

<stop  offset="100%" stop-color="#E63B33"/>
</linearGradient>

<linearGradient id="Gradient_42" gradientUnits="userSpaceOnUse" x1="205.275" y1="114.6875" x2="99.225" y2="70.11250000000001" spreadMethod="pad">
<stop  offset="0%" stop-color="#ED4529"/>

<stop  offset="100%" stop-color="#ED3F28"/>
</linearGradient>

<linearGradient id="Gradient_43" gradientUnits="userSpaceOnUse" x1="250.9" y1="186.9375" x2="160.29999999999998" y2="148.8625" spreadMethod="pad">
<stop  offset="0%" stop-color="#E9432E"/>

<stop  offset="100%" stop-color="#E63832"/>
</linearGradient>

<linearGradient id="Gradient_44" gradientUnits="userSpaceOnUse" x1="165.525" y1="162.4125" x2="90.275" y2="130.7875" spreadMethod="pad">
<stop  offset="0%" stop-color="#E32F37"/>

<stop  offset="100%" stop-color="#E93A2C"/>
</linearGradient>

<linearGradient id="Gradient_45" gradientUnits="userSpaceOnUse" x1="260.45" y1="271.075" x2="178.25" y2="236.525" spreadMethod="pad">
<stop  offset="0%" stop-color="#DF3041"/>

<stop  offset="100%" stop-color="#DE2F42"/>
</linearGradient>

<linearGradient id="Gradient_46" gradientUnits="userSpaceOnUse" x1="251.40000000000003" y1="129.6625" x2="107.2" y2="69.0375" spreadMethod="pad">
<stop  offset="0%" stop-color="#F2692B"/>

<stop  offset="100%" stop-color="#EE4C28"/>
</linearGradient>

<g id="Mask_4_MASK_0_FILL">
<path fill="#FFFFFF" stroke="none" d="
M 107.75 127.75
Q 106 129.5 106 132
L 106 242
Q 106 244.5 107.75 246.25 109.5 248 112 248
L 132 248
Q 134.5 248 136.25 246.25 138 244.5 138 242
L 138 172
Q 138 169.5 136.25 167.75 134.5 166 132 166 129.5 166 127.75 167.75 126 169.5 126 172
L 126 232.1
Q 125.95 233.7 124.8 234.8 123.7 235.95 122.1 236
L 121.9 236
Q 120.3 235.95 119.15 234.8 118.05 233.7 118 232.1
L 118 132
Q 118 129.5 116.25 127.75 114.5 126 112 126 109.5 126 107.75 127.75
M 67.75 127.75
Q 66 129.5 66 132
L 66 242
Q 66 244.5 67.75 246.25 69.5 248 72 248
L 92 248
Q 94.5 248 96.25 246.25 98 244.5 98 242
L 98 172
Q 98 169.5 96.25 167.75 94.5 166 92 166 89.5 166 87.75 167.75 86 169.5 86 172
L 86 232.1
Q 85.95 233.7 84.8 234.8 83.7 235.95 82.1 236
L 81.9 236
Q 80.3 235.95 79.15 234.8 78.05 233.7 78 232.1
L 78 161.9
Q 78.05 160.3 79.15 159.15 80.3 158.05 81.9 158
L 92 158
Q 94.5 158 96.25 156.25 98 154.5 98 152
L 98 132
Q 98 129.5 96.25 127.75 94.5 126 92 126
L 72 126
Q 69.5 126 67.75 127.75
M 79.15 144.8
Q 78.05 143.7 78 142.1
L 78 141.9
Q 78.05 140.3 79.15 139.15 80.3 138.05 81.9 138
L 82.1 138
Q 83.7 138.05 84.8 139.15 85.95 140.3 86 141.9
L 86 142.1
Q 85.95 143.7 84.8 144.8 83.7 145.95 82.1 146
L 81.9 146
Q 80.3 145.95 79.15 144.8
M 41.9 148
L 52 148
Q 54.5 148 56.25 146.25 58 144.5 58 142 58 139.5 56.25 137.75 54.5 136 52 136
L 41.9 136
Q 40.3 135.95 39.15 134.8 38.05 133.7 38 132.1
L 38 132
Q 38 129.5 36.25 127.75 34.5 126 32 126 29.5 126 27.75 127.75 26 129.5 26 132
L 26 242
Q 26 244.5 27.75 246.25 29.5 248 32 248
L 52 248
Q 54.5 248 56.25 246.25 58 244.5 58 242
L 58 172
Q 58 169.5 56.25 167.75 54.5 166 52 166 49.5 166 47.75 167.75 46 169.5 46 172
L 46 232.1
Q 45.95 233.7 44.8 234.8 43.7 235.95 42.1 236
L 41.9 236
Q 40.3 235.95 39.15 234.8 38.05 233.7 38 232.1
L 38 151.9
Q 38.05 150.3 39.15 149.15 40.3 148.05 41.9 148
M 284.8 139.15
Q 285.95 140.3 286 141.9
L 286 172
Q 286 174.5 287.75 176.25 289.5 178 292 178 294.5 178 296.25 176.25 298 174.5 298 172
L 298 132
Q 298 129.5 296.25 127.75 294.5 126 292 126
L 272 126
Q 269.5 126 267.75 127.75 266 129.5 266 132
L 266 242
Q 266 244.5 267.75 246.25 269.5 248 272 248 274.5 248 276.25 246.25 278 244.5 278 242
L 278 201.9
Q 278.05 200.3 279.15 199.15 280.3 198.05 281.9 198
L 292 198
Q 294.5 198 296.25 196.25 298 194.5 298 192 298 189.5 296.25 187.75 294.5 186 292 186
L 281.9 186
Q 280.3 185.95 279.15 184.8 278.05 183.7 278 182.1
L 278 141.9
Q 278.05 140.3 279.15 139.15 280.3 138.05 281.9 138
L 282.1 138
Q 283.7 138.05 284.8 139.15
M 164.8 144.8
Q 163.7 145.95 162.1 146
L 161.9 146
Q 160.3 145.95 159.15 144.8 158.05 143.7 158 142.1
L 158 132
Q 158 129.5 156.25 127.75 154.5 126 152 126 149.5 126 147.75 127.75 146 129.5 146 132
L 146 242
Q 146 244.5 147.75 246.25 149.5 248 152 248 154.5 248 156.25 246.25 158 244.5 158 242
L 158 181.9
Q 158.05 180.3 159.15 179.15 160.3 178.05 161.9 178
L 162.1 178
Q 163.7 178.05 164.8 179.15 165.95 180.3 166 181.9
L 166 242
Q 166 244.5 167.75 246.25 169.5 248 172 248 174.5 248 176.25 246.25 178 244.5 178 242
L 178 172
Q 178 169.5 176.25 167.75 174.5 166 172 166
L 161.9 166
Q 160.3 165.95 159.15 164.8 158.05 163.7 158 162.1
L 158 161.9
Q 158.05 160.3 159.15 159.15 160.3 158.05 161.9 158
L 172 158
Q 174.5 158 176.25 156.25 178 154.5 178 152
L 178 132
Q 178 129.5 176.25 127.75 174.5 126 172 126 169.5 126 167.75 127.75 166 129.5 166 132
L 166 142.1
Q 165.95 143.7 164.8 144.8
M 232 146
Q 229.5 146 227.75 147.75 226 149.5 226 152
L 226 242
Q 226 244.5 227.75 246.25 229.5 248 232 248
L 252 248
Q 254.5 248 256.25 246.25 258 244.5 258 242
L 258 132
Q 258 129.5 256.25 127.75 254.5 126 252 126
L 232 126
Q 229.5 126 227.75 127.75 226 129.5 226 132 226 134.5 227.75 136.25 229.5 138 232 138
L 242.1 138
Q 243.7 138.05 244.8 139.15 245.95 140.3 246 141.9
L 246 142.1
Q 245.95 143.7 244.8 144.8 243.7 145.95 242.1 146
L 232 146
M 238 161.9
Q 238.05 160.3 239.15 159.15 240.3 158.05 241.9 158
L 242.1 158
Q 243.7 158.05 244.8 159.15 245.95 160.3 246 161.9
L 246 232.1
Q 245.95 233.7 244.8 234.8 243.7 235.95 242.1 236
L 241.9 236
Q 240.3 235.95 239.15 234.8 238.05 233.7 238 232.1
L 238 161.9
M 218 132
Q 218 129.5 216.25 127.75 214.5 126 212 126
L 192 126
Q 189.5 126 187.75 127.75 186 129.5 186 132
L 186 242
Q 186 244.5 187.75 246.25 189.5 248 192 248 194.5 248 196.25 246.25 198 244.5 198 242
L 198 181.9
Q 198.05 180.3 199.15 179.15 200.3 178.05 201.9 178
L 202.1 178
Q 203.7 178.05 204.8 179.15 205.95 180.3 206 181.9
L 206 242
Q 206 244.5 207.75 246.25 209.5 248 212 248 214.5 248 216.25 246.25 218 244.5 218 242
L 218 172
Q 218 169.5 216.25 167.75 214.5 166 212 166
L 201.9 166
Q 200.3 165.95 199.15 164.8 198.05 163.7 198 162.1
L 198 161.9
Q 198.05 160.3 199.15 159.15 200.3 158.05 201.9 158
L 212 158
Q 214.5 158 216.25 156.25 218 154.5 218 152
L 218 132
M 206 142.1
Q 205.95 143.7 204.8 144.8 203.7 145.95 202.1 146
L 201.9 146
Q 200.3 145.95 199.15 144.8 198.05 143.7 198 142.1
L 198 141.9
Q 198.05 140.3 199.15 139.15 200.3 138.05 201.9 138
L 202.1 138
Q 203.7 138.05 204.8 139.15 205.95 140.3 206 141.9
L 206 142.1
M 357 128.65
Q 356.7 128.2 356.25 127.75 354.6359375 126.1359375 352.4 126
L 352 126
Q 349.5 126 347.75 127.75 346 129.5 346 132 346 134.5 347.75 136.25 349.5 138 352 138
L 352.3 138
Q 352.3501953125 137.9978515625 352.4 138 354.6359375 137.8640625 356.25 136.25 356.7 135.8 357 135.35 358 133.9 358 132 358 130.1 357 128.65
M 332 148
Q 334.5 148 336.25 146.25 338 144.5 338 142 338 139.5 336.25 137.75 334.5 136 332 136
L 321.9 136
Q 320.3 135.95 319.15 134.8 318.05 133.7 318 132.1
L 318 132
Q 318 129.5 316.25 127.75 314.5 126 312 126 309.5 126 307.75 127.75 306.05 129.45 306 131.85
L 306 242.15
Q 306.05 244.55 307.75 246.25 309.5 248 312 248
L 332 248
Q 334.5 248 336.25 246.25 338 244.5 338 242
L 338 172
Q 338 169.5 336.25 167.75 334.5 166 332 166 329.5 166 327.75 167.75 326 169.5 326 172
L 326 232.1
Q 325.95 233.7 324.8 234.8 323.7 235.95 322.1 236
L 321.9 236
Q 320.3 235.95 319.15 234.8 318.05 233.7 318 232.1
L 318 151.9
Q 318.05 150.3 319.15 149.15 320.3 148.05 321.9 148
L 332 148 Z"/>
</g>

<g id="Layer4_0_FILL">
<path fill="url(#Gradient_1)" stroke="none" d="
M 40.75 248
L 47.05 248 44.9 246.7 40.75 248 Z"/>

<path fill="url(#Gradient_2)" stroke="none" d="
M 26 239.95
L 26 242
Q 26 244.5 27.75 246.25 29.5 248 32 248
L 40.75 248 44.9 246.7 26 239.95 Z"/>

<path fill="url(#Gradient_3)" stroke="none" d="
M 55.25 247.05
L 44.9 246.7 47.05 248 52 248
Q 53.82734375 248 55.25 247.05
M 69.7 247.55
Q 70.76484375 248 72 248
L 81.8 248 69.7 247.55 Z"/>

<path fill="url(#Gradient_4)" stroke="none" d="
M 47.75 167.75
Q 46 169.5 46 172
L 46 227.45 49.45 166.55
Q 48.5283203125 166.9716796875 47.75 167.75
M 38 176.2
L 26 195.5 26 239.95 44.9 246.7 45.65 233.65
Q 45.3431640625 234.28046875 44.8 234.8 43.7 235.95 42.1 236
L 41.9 236
Q 40.3 235.95 39.15 234.8 38.05 233.7 38 232.1
L 38 176.2 Z"/>

<path fill="url(#Gradient_5)" stroke="none" d="
M 58 172
Q 58 169.5 56.25 167.75 54.5 166 52 166 50.6119140625 166 49.45 166.55
L 46 227.45 46 232.1
Q 45.9736328125 232.9443359375 45.65 233.65
L 44.9 246.7 55.25 247.05
Q 55.7791015625 246.7208984375 56.25 246.25 58 244.5 58 242
L 58 172
M 78 186.3
L 66 173.7 66 242
Q 66 244.5 67.75 246.25 68.6353515625 247.1353515625 69.7 247.55
L 81.8 248 92 248
Q 94.5 248 96.25 246.25 98 244.5 98 242
L 98 207.3 86 194.7 86 232.1
Q 85.95 233.7 84.8 234.8 83.7 235.95 82.1 236
L 81.9 236
Q 80.3 235.95 79.15 234.8 78.05 233.7 78 232.1
L 78 186.3
M 122.1 236
L 121.9 236
Q 120.3 235.95 119.15 234.8 118.05 233.7 118 232.1
L 118 228.25 106 215.7 106 242
Q 106 244.5 107.75 246.25 109.5 248 112 248
L 132 248
Q 134.0794921875 248 135.65 246.8
L 124.5 235.1
Q 123.481640625 235.9568359375 122.1 236 Z"/>

<path fill="url(#Gradient_6)" stroke="none" d="
M 26 163.15
L 38 160.05 38 152.1 26 147.3 26 163.15 Z"/>

<path fill="url(#Gradient_7)" stroke="none" d="
M 26 163.15
L 26 195.5 38 176.2 38 160.05 26 163.15 Z"/>

<path fill="url(#Gradient_8)" stroke="none" d="
M 26 142.85
L 26 147.3 38 152.1 38 151.9
Q 38.05 150.3 39.15 149.15 40.2091796875 148.1369140625 41.65 148
L 26 142.85 Z"/>

<path fill="url(#Gradient_9)" stroke="none" d="
M 52.85 147.95
L 55.3 136.95
Q 53.8703125 136 52 136
L 41.9 136
Q 40.3 135.95 39.15 134.8 38.05 133.7 38 132.1
L 38 132
Q 38 129.5 36.25 127.75 34.5 126 32 126 31.1513671875 126 30.4 126.2
L 49.1 148 52 148
Q 52.430859375 148 52.85 147.95 Z"/>

<path fill="url(#Gradient_10)" stroke="none" d="
M 56.25 137.75
Q 55.8091796875 137.3091796875 55.3 136.95
L 52.85 147.95
Q 54.8015625 147.6984375 56.25 146.25 58 144.5 58 142 58 139.5 56.25 137.75
M 146 179.7
L 149.55 180.8 146 177.35 146 179.7
M 72 126
Q 69.5 126 67.75 127.75 66 129.5 66 132
L 66 155.65 78.85 159.5
Q 78.98125 159.3263671875 79.15 159.15 80.3 158.05 81.9 158
L 92 158
Q 94.5 158 96.25 156.25 98 154.5 98 152
L 98 132
Q 98 131.3384765625 97.85 130.7
L 93.1 126.1
Q 92.5626953125 126 92 126
L 72 126
M 78 141.9
Q 78.05 140.3 79.15 139.15 80.3 138.05 81.9 138
L 82.1 138
Q 83.7 138.05 84.8 139.15 85.95 140.3 86 141.9
L 86 142.1
Q 85.95 143.7 84.8 144.8 83.7 145.95 82.1 146
L 81.9 146
Q 80.3 145.95 79.15 144.8 78.05 143.7 78 142.1
L 78 141.9
M 135.15 166.9
Q 133.784375 166 132 166 129.5 166 127.75 167.75 126 169.5 126 172
L 126 173.7 138 177.3 138 172
Q 138 170.0900390625 136.95 168.6
L 135.15 166.9
M 106 167.7
L 118 171.3 118 150.25 106 138.6 106 167.7 Z"/>

<path fill="url(#Gradient_11)" stroke="none" d="
M 41.65 148
Q 41.7736328125 148.00390625 41.9 148
L 49.1 148 30.4 126.2
Q 28.9060546875 126.5939453125 27.75 127.75 26 129.5 26 132
L 26 142.85 41.65 148 Z"/>

<path fill="url(#Gradient_12)" stroke="none" d="
M 318 213.3
L 306 209.35 306 231.45 318 231.65 318 213.3
M 338 231.95
L 338 219.95 326 215.95 326 231.75 338 231.95 Z"/>

<path fill="url(#Gradient_13)" stroke="none" d="
M 306 199.95
L 306 209.35 318 213.3 318 198.1 306 199.95
M 338 195
L 326 196.85 326 215.95 338 219.95 338 195 Z"/>

<path fill="url(#Gradient_14)" stroke="none" d="
M 318 156.45
L 306 174.25 306 199.95 318 198.1 318 156.45
M 338 195
L 338 172
Q 338 169.5 336.25 167.75 334.5 166 332 166 329.5 166 327.75 167.75 326 169.5 326 172
L 326 196.85 338 195
M 296.25 196.25
Q 298 194.5 298 192 298 189.7826171875 296.6 188.15
L 289.95 198 292 198
Q 294.5 198 296.25 196.25 Z"/>

<path fill="url(#Gradient_15)" stroke="none" d="
M 306 155.85
L 315.1 151.45 306 143.1 306 155.85
M 286 165.55
L 298 159.7 298 143.55 286 156.5 286 165.55
M 278 169.4
L 278 165.15 270.85 172.9 278 169.4 Z"/>

<path fill="url(#Gradient_16)" stroke="none" d="
M 318 156.45
L 318 154.4 306 159.1 306 174.25 318 156.45
M 298 172
L 298 162.25 286 166.95 286 172
Q 286 174.5 287.75 176.25 289.5 178 292 178 294.5 178 296.25 176.25 298 174.5 298 172
M 278 170.1
L 270.85 172.9 284.05 198 289.95 198 296.6 188.15
Q 296.4478515625 187.9478515625 296.25 187.75 294.5 186 292 186
L 281.9 186
Q 280.3 185.95 279.15 184.8 278.05 183.7 278 182.1
L 278 170.1 Z"/>

<path fill="url(#Gradient_17)" stroke="none" d="
M 318 154.4
L 318 152.8 315.1 151.45 306 155.85 306 159.1 318 154.4
M 298 162.25
L 298 159.7 286 165.55 286 166.95 298 162.25
M 278 169.4
L 270.85 172.9 278 170.1 278 169.4 Z"/>

<path fill="url(#Gradient_18)" stroke="none" d="
M 318 152.8
L 318 151.9
Q 318.040234375 150.6095703125 318.75 149.6
L 315.1 151.45 318 152.8
M 338 142
Q 338 140.9888671875 337.7 140.1
L 321.95 148 328.85 148 338 142.2
Q 338 142.0953125 338 142
M 347.05 135.4
Q 347.29296875 135.77265625 347.6 136.1
L 354.85 131.5 347.05 135.4 Z"/>

<path fill="url(#Gradient_19)" stroke="none" d="
M 318 132.1
L 318 132
Q 318 129.5 316.25 127.75 314.5 126 312 126 309.5 126 307.75 127.75 306.05 129.45 306 131.85
L 306 138.75 324.5 136 321.9 136
Q 320.3 135.95 319.15 134.8 318.05 133.7 318 132.1
M 346 132
Q 346 132.4126953125 346.05 132.8
L 354.85 131.5 346.3 130
Q 346 130.9404296875 346 132 Z"/>

<path fill="url(#Gradient_20)" stroke="none" d="
M 338 242
L 338 231.95 326 231.75 326 232.1
Q 325.95 233.7 324.8 234.8 323.7 235.95 322.1 236
L 321.9 236
Q 320.3 235.95 319.15 234.8 318.05 233.7 318 232.1
L 318 231.65 306 231.45 306 242.15
Q 306.05 244.55 307.75 246.25 309.5 248 312 248
L 332 248
Q 334.5 248 336.25 246.25 338 244.5 338 242 Z"/>

<path fill="url(#Gradient_21)" stroke="none" d="
M 328.85 148
L 332 148
Q 334.5 148 336.25 146.25 337.933203125 144.566796875 338 142.2
L 328.85 148
M 347.75 136.25
Q 349.5 138 352 138
L 352.3 138
Q 352.3501953125 137.9978515625 352.4 138 354.6359375 137.8640625 356.25 136.25 356.2728515625 136.2271484375 356.3 136.2
L 354.85 131.5 347.6 136.1
Q 347.6759765625 136.1759765625 347.75 136.25 Z"/>

<path fill="url(#Gradient_22)" stroke="none" d="
M 332 136
L 324.5 136 306 138.75 306 143.1 315.1 151.45 318.75 149.6
Q 318.937109375 149.3724609375 319.15 149.15 320.3 148.05 321.9 148
L 321.95 148 337.7 140.1
Q 337.2921875 138.7921875 336.25 137.75 334.5 136 332 136
M 346.05 132.8
Q 346.2240234375 134.252734375 347.05 135.4
L 354.85 131.5 346.05 132.8 Z"/>

<path fill="url(#Gradient_23)" stroke="none" d="
M 266 236.3
L 273.9 233.6 266 215.05 266 236.3
M 258 196.3
L 250.8 179.45 258 222.1 258 196.3 Z"/>

<path fill="url(#Gradient_24)" stroke="none" d="
M 266 236.3
L 266 242
Q 266 244.5 267.75 246.25 269.5 248 272 248 273.533203125 248 274.75 247.35
L 273.9 233.6 266 236.3 Z"/>

<path fill="url(#Gradient_25)" stroke="none" d="
M 278 232.5
L 273.9 233.6 274.75 247.35
Q 275.5732421875 246.9267578125 276.25 246.25 278 244.5 278 242
L 278 232.5 Z"/>

<path fill="url(#Gradient_26)" stroke="none" d="
M 278 232.5
L 278 223.75 273.9 233.6 278 232.5 Z"/>

<path fill="url(#Gradient_27)" stroke="none" d="
M 279.15 199.15
Q 279.520703125 198.7955078125 279.95 198.55
L 266 189.4 266 215.05 273.9 233.6 278 223.75 278 201.9
Q 278.05 200.3 279.15 199.15
M 258 196.3
L 258 184.15 250.8 179.45 258 196.3 Z"/>

<path fill="url(#Gradient_28)" stroke="none" d="
M 266 174.45
L 266 189.4 279.95 198.55
Q 280.815625 198.033984375 281.9 198
L 284.05 198 270.85 172.9 266 174.45
M 258 184.15
L 258 177.1 250.8 179.45 258 184.15 Z"/>

<path fill="url(#Gradient_29)" stroke="none" d="
M 270.85 172.9
L 266 171.15 266 174.45 270.85 172.9
M 258 168.25
L 246 163.9 246 176 250.8 179.45 258 177.1 258 168.25
M 238 161.9
Q 238.0138671875 161.4533203125 238.1 161.05
L 226 156.65 226 161.75 238 170.3 238 161.9
M 217 155.35
Q 217.5259765625 154.5833984375 217.75 153.65
L 211.35 151.35 217 155.35 Z"/>

<path fill="url(#Gradient_30)" stroke="none" d="
M 278 142.5
L 266 144.1 266 171.15 270.85 172.9 278 165.15 278 142.5
M 285.95 141.45
Q 285.99296875 141.6759765625 286 141.9
L 286 156.5 298 143.55 298 139.85 285.95 141.45
M 241.9 158
L 242.1 158
Q 243.7 158.05 244.8 159.15 245.95 160.3 246 161.9
L 246 163.9 258 168.25 258 145.15 226.6 149.3
Q 226 150.5359375 226 152
L 226 156.65 238.1 161.05
Q 238.35703125 159.97890625 239.15 159.15 240.3 158.05 241.9 158
M 218 152
L 218 150.45 211.35 151.35 217.75 153.65
Q 218 152.8880859375 218 152 Z"/>

<path fill="url(#Gradient_31)" stroke="none" d="
M 267.75 127.75
Q 266 129.5 266 132
L 266 133.1 287.35 126 272 126
Q 269.5 126 267.75 127.75
M 230.1 137.7
Q 231.0080078125 138 232 138
L 242.1 138
Q 243.7 138.05 244.8 139.15 245.1859375 139.5359375 245.45 139.95
L 258 135.8 258 132
Q 258 129.5 256.25 127.75 254.5 126 252 126
L 246.3 126 230.1 137.7
M 211.35 151.35
L 218 149.1 218 146.5 211.35 151.35 Z"/>

<path fill="url(#Gradient_32)" stroke="none" d="
M 298 132
Q 298 129.5 296.25 127.75 294.5 126 292 126
L 287.35 126 266 133.1 266 144.1 278 142.5 278 141.9
Q 278.05 140.3 279.15 139.15 280.3 138.05 281.9 138
L 282.1 138
Q 283.7 138.05 284.8 139.15 285.7890625 140.1390625 285.95 141.45
L 298 139.85 298 132
M 232 146
Q 229.5 146 227.75 147.75 227.0248046875 148.4751953125 226.6 149.3
L 258 145.15 258 135.8 245.45 139.95
Q 245.966796875 140.837109375 246 141.9
L 246 142.1
Q 245.95 143.7 244.8 144.8 243.7 145.95 242.1 146
L 232 146
M 218 150.45
L 218 149.1 211.35 151.35 218 150.45 Z"/>

<path fill="url(#Gradient_33)" stroke="none" d="
M 347.75 127.75
Q 346.7416015625 128.7583984375 346.3 130
L 354.85 131.5 348.5 127.1
Q 348.120703125 127.379296875 347.75 127.75 Z"/>

<path fill="url(#Gradient_34)" stroke="none" d="
M 357.75 133.8
L 354.85 131.5 356.3 136.2
Q 356.715234375 135.7771484375 357 135.35 357.4958984375 134.6310546875 357.75 133.8 Z"/>

<path fill="url(#Gradient_35)" stroke="none" d="
M 354.85 131.5
L 356.7 128.25
Q 356.50703125 128.00703125 356.25 127.75 354.6359375 126.1359375 352.4 126
L 352 126
Q 350.0294921875 126 348.5 127.1
L 354.85 131.5 Z"/>

<path fill="url(#Gradient_36)" stroke="none" d="
M 356.7 128.25
L 354.85 131.5 357.75 133.8
Q 358 132.9580078125 358 132 358 130.1 357 128.65 356.8712890625 128.45703125 356.7 128.25 Z"/>

<path fill="url(#Gradient_37)" stroke="none" d="
M 166 242
Q 166 244.0451171875 167.15 245.6
L 166 241.25 166 242
M 156.25 246.25
Q 158 244.5 158 242
L 158 211.85 149.55 180.8 146 203.45 146 242
Q 146 244.5 147.75 246.25 149.5 248 152 248 154.5 248 156.25 246.25 Z"/>

<path fill="url(#Gradient_38)" stroke="none" d="
M 158 185.15
L 149.55 180.8 158 211.85 158 185.15
M 178 195.45
L 166 189.25 166 241.25 167.15 245.6
Q 167.431640625 245.931640625 167.75 246.25 169.5 248 172 248 174.5 248 176.25 246.25 178 244.5 178 242
L 178 195.45
M 258 238.55
L 258 236.7 246 230.5 246 232.1
Q 245.95 233.7 244.8 234.8 243.7 235.95 242.1 236
L 241.9 236
Q 240.3 235.95 239.15 234.8 238.05 233.7 238 232.1
L 238 226.4 226 220.2 226 242
Q 226 243.1501953125 226.35 244.15
L 258 238.55
M 198 205.8
L 186 199.6 186 242
Q 186 244.5 187.75 246.25 189.5 248 192 248 194.5 248 196.25 246.25 198 244.5 198 242
L 198 205.8
M 218 216.1
L 206 209.9 206 242
Q 206 244.5 207.75 246.25 208.3263671875 246.8263671875 208.95 247.2
L 216.6 245.85
Q 218 244.2333984375 218 242
L 218 216.1 Z"/>

<path fill="url(#Gradient_39)" stroke="none" d="
M 149.55 180.8
L 146 179.95 146 203.45 149.55 180.8
M 89.65 166.45
Q 88.6119140625 166.8880859375 87.75 167.75 86 169.5 86 172
L 86 194.7 98 207.3 98 172
Q 98 169.7529296875 96.55 168.1
L 89.65 166.45
M 78 163.65
L 66 160.75 66 173.7 78 186.3 78 163.65
M 138 178
L 126 175.15 126 232.1
Q 125.95 233.7 124.8 234.8 124.6498046875 234.95703125 124.5 235.1
L 135.65 246.8
Q 135.9556640625 246.5443359375 136.25 246.25 138 244.5 138 242
L 138 178
M 118 173.2
L 106 170.35 106 215.7 118 228.25 118 173.2 Z"/>

<path fill="url(#Gradient_40)" stroke="none" d="
M 146 179.7
L 146 179.95 149.55 180.8 146 179.7
M 96.55 168.1
Q 96.426953125 167.926953125 96.25 167.75 94.5 166 92 166 90.7314453125 166 89.65 166.45
L 96.55 168.1
M 66 155.65
L 66 160.75 78 163.65 78 161.9
Q 78.0423828125 160.5455078125 78.85 159.5
L 66 155.65
M 138 178
L 138 177.3 126 173.7 126 175.15 138 178
M 106 167.7
L 106 170.35 118 173.2 118 171.3 106 167.7 Z"/>

<path fill="url(#Gradient_41)" stroke="none" d="
M 158 181.9
Q 158.0203125 181.253125 158.2 180.65
L 149.55 180.8 158 185.15 158 181.9
M 166 181.9
L 166 189.25 178 195.45 178 180.4 165.75 180.55
Q 165.978125 181.1986328125 166 181.9
M 250.8 179.45
L 246 179.5 246 230.5 258 236.7 258 222.1 250.8 179.45
M 238 179.6
L 226 179.75 226 220.2 238 226.4 238 179.6
M 218 179.85
L 205.5 180.05
Q 205.968359375 180.8876953125 206 181.9
L 206 209.9 218 216.1 218 179.85
M 198.45 180.15
L 186 180.3 186 199.6 198 205.8 198 181.9
Q 198.030078125 180.940234375 198.45 180.15 Z"/>

<path fill="url(#Gradient_42)" stroke="none" d="
M 158 132
L 158 132
Q 158 129.5 156.25 127.75 154.5 126 152 126 149.5 126 147.75 127.75 147.5443359375 127.9556640625 147.35 128.15
L 158 132
M 178 132
Q 178 129.5 176.25 127.75 174.5 126 172 126 169.5 126 167.75 127.75 166 129.5 166 132
L 166 134.9 178 139.25 178 132
M 187 128.65
Q 186 130.106640625 186 132
L 186 142.15 211.35 151.35 204.55 145
Q 203.5298828125 145.9552734375 202.1 146
L 201.9 146
Q 200.3 145.95 199.15 144.8 198.05 143.7 198 142.1
L 198 141.9
Q 198.040234375 140.6115234375 198.75 139.6
L 187 128.65 Z"/>

<path fill="url(#Gradient_43)" stroke="none" d="
M 178 172
Q 178 169.6580078125 176.45 167.95
L 149.55 180.8 158.2 180.65
Q 158.4947265625 179.8349609375 159.15 179.15 160.3 178.05 161.9 178
L 162.1 178
Q 163.7 178.05 164.8 179.15 165.4458984375 179.7958984375 165.75 180.55
L 178 180.4 178 172
M 246 176
L 246 179.5 250.8 179.45 246 176
M 238 170.3
L 226 161.75 226 179.75 238 179.6 238 170.3
M 201.9 166
Q 200.3 165.95 199.15 164.8 198.05 163.7 198 162.1
L 198 161.9
Q 198.05 160.3 199.15 159.15 200.3 158.05 201.9 158
L 212 158
Q 214.5 158 216.25 156.25 216.669921875 155.830078125 217 155.35
L 211.35 151.35 186 163.4 186 180.3 198.45 180.15
Q 198.7099609375 179.61015625 199.15 179.15 200.3 178.05 201.9 178
L 202.1 178
Q 203.7 178.05 204.8 179.15 205.2224609375 179.5724609375 205.5 180.05
L 218 179.85 218 172
Q 218 169.5 216.25 167.75 214.5 166 212 166
L 201.9 166 Z"/>

<path fill="url(#Gradient_44)" stroke="none" d="
M 166 142.1
Q 165.95 143.7 164.8 144.8 163.7 145.95 162.1 146
L 161.9 146
Q 160.3 145.95 159.15 144.8 158.05 143.7 158 142.1
L 158 132 147.35 128.15
Q 146 129.79375 146 132
L 146 177.35 149.55 180.8 176.45 167.95
Q 176.360546875 167.860546875 176.25 167.75 174.5 166 172 166
L 161.9 166
Q 160.3 165.95 159.15 164.8 158.05 163.7 158 162.1
L 158 161.9
Q 158.05 160.3 159.15 159.15 160.3 158.05 161.9 158
L 172 158
Q 174.5 158 176.25 156.25 178 154.5 178 152
L 178 139.25 166 134.9 166 142.1
M 97.85 130.7
Q 97.5369140625 129.0369140625 96.25 127.75 94.8939453125 126.3939453125 93.1 126.1
L 97.85 130.7
M 136.25 167.75
Q 135.7490234375 167.2490234375 135.15 166.9
L 136.95 168.6
Q 136.662890625 168.162890625 136.25 167.75
M 106 132
L 106 138.6 118 150.25 118 132
Q 118 129.5 116.25 127.75 114.5 126 112 126 109.5 126 107.75 127.75 106 129.5 106 132
M 186 142.15
L 186 163.4 211.35 151.35 186 142.15 Z"/>

<path fill="url(#Gradient_45)" stroke="none" d="
M 258 242
L 258 238.55 226.35 244.15
Q 226.805078125 245.305078125 227.75 246.25 229.5 248 232 248
L 252 248
Q 254.5 248 256.25 246.25 258 244.5 258 242
M 216.6 245.85
L 208.95 247.2
Q 210.3232421875 248 212 248 214.5 248 216.25 246.25 216.4365234375 246.0634765625 216.6 245.85 Z"/>

<path fill="url(#Gradient_46)" stroke="none" d="
M 227.75 136.25
Q 228.80546875 137.30546875 230.1 137.7
L 246.3 126 232 126
Q 229.5 126 227.75 127.75 226 129.5 226 132 226 134.5 227.75 136.25
M 218 146.5
L 218 132
Q 218 129.5 216.25 127.75 214.5 126 212 126
L 192 126
Q 189.5 126 187.75 127.75 187.325390625 128.174609375 187 128.65
L 198.75 139.6
Q 198.9359375 139.373828125 199.15 139.15 200.3 138.05 201.9 138
L 202.1 138
Q 203.7 138.05 204.8 139.15 205.95 140.3 206 141.9
L 206 142.1
Q 205.95 143.7 204.8 144.8 204.6830078125 144.922265625 204.55 145
L 211.35 151.35 218 146.5 Z"/>
</g>
</defs>

<mask id="Mask_Mask_1">
<g transform="matrix( 1, 0, 0, 1, 0,0) ">
<use xlink:href="#Mask_4_MASK_0_FILL"/>
</g>
</mask>

<g mask="url(#Mask_Mask_1)">
<g transform="matrix( 1, 0, 0, 1, 0,0) ">
<use xlink:href="#Layer4_0_FILL"/>
</g>
</g>
</svg>
